<svg width="50" height="34" viewBox="0 0 50 34" fill="none" xmlns="http://www.w3.org/2000/svg">
<path fill-rule="evenodd" clip-rule="evenodd" d="M0.5 16.5C0.5 15.1193 1.61929 14 3 14H47C48.3807 14 49.5 15.1193 49.5 16.5C49.5 17.8807 48.3807 19 47 19H3C1.61929 19 0.5 17.8807 0.5 16.5Z" fill="black"/>
<path fill-rule="evenodd" clip-rule="evenodd" d="M0.5 2.5C0.5 1.11929 1.61929 0 3 0H47C48.3807 0 49.5 1.11929 49.5 2.5C49.5 3.88071 48.3807 5 47 5H3C1.61929 5 0.5 3.88071 0.5 2.5Z" fill="black"/>
<path fill-rule="evenodd" clip-rule="evenodd" d="M0 31.5C0 30.1193 1.11929 29 2.5 29H47.5C48.8807 29 50 30.1193 50 31.5C50 32.8807 48.8807 34 47.5 34H2.5C1.11929 34 0 32.8807 0 31.5Z" fill="black"/>
</svg>
