<svg width="53" height="50" viewBox="0 0 53 50" fill="none" xmlns="http://www.w3.org/2000/svg">
<path fill-rule="evenodd" clip-rule="evenodd" d="M15.0888 45.5621C15.0888 43.1111 17.0756 41.1243 19.5266 41.1243C21.9777 41.1243 23.9645 43.1111 23.9645 45.5621C23.9645 48.0132 21.9777 50 19.5266 50C17.0756 50 15.0888 48.0132 15.0888 45.5621Z" fill="black"/>
<path fill-rule="evenodd" clip-rule="evenodd" d="M39.0532 45.5621C39.0532 43.1111 40.9738 41.1243 43.3432 41.1243C45.7125 41.1243 47.6331 43.1111 47.6331 45.5621C47.6331 48.0132 45.7125 50 43.3432 50C40.9738 50 39.0532 48.0132 39.0532 45.5621Z" fill="black"/>
<path fill-rule="evenodd" clip-rule="evenodd" d="M0 2.17538C0 0.973951 0.971374 0 2.16962 0H10.8481C11.8822 0 12.7726 0.731765 12.9756 1.74845L14.7978 10.8769H49.9014C50.548 10.8769 51.1609 11.1661 51.573 11.6656C51.9852 12.1651 52.1537 12.8229 52.0326 13.4598L48.5581 31.7275C48.2605 33.23 47.4452 34.5792 46.2557 35.5396C45.0715 36.4952 43.5911 37.0052 42.072 36.9814H21.0207C19.5016 37.0052 18.0216 36.4955 16.8374 35.5399C15.6484 34.5799 14.833 33.2312 14.5351 31.7296C14.5349 31.7289 14.5348 31.7282 14.5347 31.7275L10.9106 13.5726C10.8959 13.5126 10.8837 13.4515 10.8741 13.3896L9.06972 4.35076H2.16962C0.971374 4.35076 0 3.37681 0 2.17538ZM15.6663 15.2277L18.7908 30.8799C18.89 31.3806 19.1616 31.8305 19.5585 32.1509C19.9552 32.4709 20.4515 32.6408 20.9605 32.6311L21.002 32.6307H42.0907L42.1321 32.6311C42.6412 32.6408 43.1375 32.4709 43.5341 32.1509M15.6663 15.2277H47.2789L44.3005 30.8867C44.2003 31.3845 43.929 31.8319 43.5341 32.1509" fill="black"/>
</svg>
